<svg width="18" height="18" viewBox="0 0 18 18" fill="none" xmlns="http://www.w3.org/2000/svg">
<path d="M13.5002 3.36005C12.3067 2.16658 10.688 1.49609 9.00019 1.49609C7.31236 1.49609 5.69367 2.16658 4.50019 3.36005C3.30672 4.55353 2.63623 6.17223 2.63623 7.86005C2.63623 9.54788 3.30672 11.1666 4.50019 12.3601L8.45269 16.3201C8.52241 16.3904 8.60536 16.4461 8.69676 16.4842C8.78815 16.5223 8.88618 16.5419 8.98519 16.5419C9.0842 16.5419 9.18223 16.5223 9.27362 16.4842C9.36502 16.4461 9.44797 16.3904 9.51769 16.3201L13.5002 12.3226C14.6887 11.134 15.3564 9.52209 15.3564 7.8413C15.3564 6.16051 14.6887 4.54856 13.5002 3.36005ZM12.4277 11.2501L9.00019 14.6926L5.57269 11.2501C4.89555 10.5723 4.43455 9.70899 4.24796 8.76927C4.06138 7.82956 4.15758 6.85561 4.52442 5.97057C4.89126 5.08552 5.51225 4.32909 6.30891 3.79691C7.10557 3.26473 8.04213 2.98069 9.00019 2.98069C9.95825 2.98069 10.8948 3.26473 11.6915 3.79691C12.4881 4.32909 13.1091 5.08552 13.476 5.97057C13.8428 6.85561 13.939 7.82956 13.7524 8.76927C13.5658 9.70899 13.1048 10.5723 12.4277 11.2501ZM6.75019 5.55755C6.14473 6.16488 5.80474 6.98748 5.80474 7.84505C5.80474 8.70263 6.14473 9.52523 6.75019 10.1326C7.20001 10.5831 7.77288 10.8909 8.39693 11.0171C9.02098 11.1433 9.66841 11.0825 10.258 10.8422C10.8476 10.6018 11.3531 10.1928 11.7111 9.66624C12.069 9.13972 12.2635 8.51921 12.2702 7.88256C12.2736 7.45746 12.1917 7.036 12.0294 6.6431C11.8671 6.25019 11.6276 5.89382 11.3252 5.59505C11.0279 5.29099 10.6735 5.04871 10.2823 4.88215C9.89102 4.7156 9.4707 4.62806 9.04549 4.62458C8.62029 4.62109 8.19859 4.70173 7.80467 4.86185C7.41075 5.02196 7.05238 5.2584 6.75019 5.55755ZM10.2677 9.06755C9.98347 9.35611 9.60785 9.53698 9.20504 9.57924C8.80222 9.62151 8.39724 9.52253 8.05932 9.29925C7.7214 9.07597 7.47154 8.74224 7.35245 8.35512C7.23335 7.968 7.25243 7.55153 7.40641 7.17692C7.56039 6.80231 7.83972 6.49282 8.19663 6.30136C8.55354 6.1099 8.96588 6.04836 9.36314 6.12727C9.76041 6.20617 10.1179 6.42062 10.3746 6.73395C10.6312 7.04728 10.7711 7.44003 10.7702 7.84505C10.7593 8.30801 10.5651 8.7477 10.2302 9.06755H10.2677Z" fill="white"/>
</svg>
