<svg width="16" height="16" viewBox="0 0 16 16" fill="none" xmlns="http://www.w3.org/2000/svg">
<path d="M14.6665 6.44664C14.6244 6.3247 14.5478 6.21759 14.446 6.13831C14.3443 6.05903 14.2217 6.01097 14.0932 5.99997L10.2998 5.44664L8.59982 1.99997C8.54523 1.88726 8.46 1.7922 8.35388 1.72569C8.24777 1.65918 8.12506 1.6239 7.99982 1.6239C7.87458 1.6239 7.75188 1.65918 7.64576 1.72569C7.53965 1.7922 7.45441 1.88726 7.39982 1.99997L5.69982 5.43997L1.90649 5.99997C1.7831 6.01751 1.6671 6.06928 1.57166 6.14941C1.47621 6.22954 1.40513 6.33482 1.36649 6.45331C1.33112 6.56909 1.32794 6.69232 1.35731 6.80977C1.38667 6.92722 1.44746 7.03446 1.53316 7.11997L4.28649 9.78664L3.61982 13.5733C3.59602 13.6983 3.60848 13.8275 3.65574 13.9456C3.70299 14.0637 3.78306 14.1659 3.88649 14.24C3.9873 14.312 4.1062 14.3546 4.22985 14.3628C4.3535 14.3711 4.477 14.3447 4.58649 14.2866L7.99982 12.5066L11.3998 14.2933C11.4934 14.3461 11.5991 14.3737 11.7065 14.3733C11.8477 14.3738 11.9854 14.3295 12.0998 14.2466C12.2033 14.1725 12.2833 14.0704 12.3306 13.9523C12.3778 13.8341 12.3903 13.705 12.3665 13.58L11.6998 9.79331L14.4532 7.12664C14.5494 7.04509 14.6206 6.93791 14.6583 6.81754C14.6961 6.69717 14.6989 6.56856 14.6665 6.44664ZM10.5665 9.11331C10.4883 9.18893 10.4298 9.28253 10.3961 9.38596C10.3624 9.48938 10.3545 9.59947 10.3732 9.70664L10.8532 12.5L8.34649 11.1666C8.25003 11.1153 8.14243 11.0884 8.03316 11.0884C7.92388 11.0884 7.81628 11.1153 7.71982 11.1666L5.21316 12.5L5.69316 9.70664C5.71178 9.59947 5.7039 9.48938 5.6702 9.38596C5.6365 9.28253 5.57801 9.18893 5.49982 9.11331L3.49982 7.11331L6.30649 6.70664C6.41449 6.69162 6.51715 6.65033 6.60549 6.58641C6.69382 6.52248 6.76513 6.43787 6.81316 6.33997L7.99982 3.79997L9.25316 6.34664C9.30118 6.44453 9.37249 6.52915 9.46082 6.59308C9.54916 6.657 9.65182 6.69829 9.75982 6.71331L12.5665 7.11997L10.5665 9.11331Z" fill="#FACC15"/>
</svg>
