<svg width="13" height="14" viewBox="0 0 13 14" fill="none" xmlns="http://www.w3.org/2000/svg">
<path d="M5.66683 11.2143C6.85015 11.2141 7.99937 10.8109 8.9315 10.0689L11.8622 13.0519L12.8048 12.0924L9.87416 9.10939C10.6035 8.16052 10.9999 6.99051 11.0002 5.78575C11.0002 2.79257 8.6075 0.357178 5.66683 0.357178C2.72616 0.357178 0.333496 2.79257 0.333496 5.78575C0.333496 8.77893 2.72616 11.2143 5.66683 11.2143ZM5.66683 1.71432C7.87283 1.71432 9.66683 3.54036 9.66683 5.78575C9.66683 8.03114 7.87283 9.85718 5.66683 9.85718C3.46083 9.85718 1.66683 8.03114 1.66683 5.78575C1.66683 3.54036 3.46083 1.71432 5.66683 1.71432Z" fill="#404040"/>
</svg>
